<svg width="27" height="27" viewBox="0 0 27 27" fill="none" xmlns="http://www.w3.org/2000/svg">
<path d="M16.7102 4.41194C16.7242 3.76984 16.5474 3.13801 16.2023 2.59634C15.8572 2.05468 15.3593 1.62751 14.7714 1.36886C14.1835 1.11021 13.5321 1.0317 12.8996 1.14324C12.2671 1.25479 11.6819 1.55139 11.218 1.99553C10.7541 2.43967 10.4323 3.01141 10.2933 3.63845C10.1543 4.26549 10.2043 4.91966 10.4371 5.51824C10.6699 6.11682 11.075 6.63293 11.6011 7.0013C12.1272 7.36967 12.7508 7.57375 13.3929 7.58774C14.2539 7.6065 15.0871 7.28245 15.7093 6.68688C16.3314 6.0913 16.6914 5.27298 16.7102 4.41194ZM13.4283 5.96447C13.1072 5.95748 12.7954 5.85543 12.5324 5.67125C12.2693 5.48707 12.0668 5.22901 11.9504 4.92972C11.834 4.63043 11.809 4.30335 11.8785 3.98983C11.9479 3.67631 12.1089 3.39044 12.3408 3.16837C12.5728 2.94629 12.8654 2.798 13.1816 2.74222C13.4979 2.68645 13.8236 2.72571 14.1175 2.85503C14.4114 2.98436 14.6604 3.19794 14.833 3.46877C15.0055 3.7396 15.0939 4.05552 15.0869 4.37657C15.0775 4.80709 14.8975 5.21625 14.5864 5.51404C14.2754 5.81183 13.8588 5.97385 13.4283 5.96447ZM23.8587 9.4104C23.7762 8.95383 23.5369 8.5404 23.182 8.24153C22.8271 7.94265 22.379 7.77709 21.9151 7.77344L4.87072 7.40204C4.40817 7.39195 3.95606 7.5402 3.58929 7.82222C3.22252 8.10424 2.96312 8.5031 2.85407 8.95273C2.74501 9.40235 2.79284 9.87573 2.98964 10.2944C3.18645 10.7132 3.5204 11.0521 3.93617 11.255L3.94936 11.2553L9.04876 13.635L6.74198 21.6765C6.50835 22.1627 6.47744 22.7218 6.65604 23.2308C6.83463 23.7398 7.20811 24.157 7.69431 24.3906C8.18052 24.6243 8.73961 24.6552 9.24861 24.4766C9.75761 24.298 10.1748 23.9245 10.4084 23.4383L13.1454 18.9435L15.6841 23.5533C15.9082 24.0285 16.308 24.3983 16.7992 24.5848C17.2905 24.7713 17.8349 24.7601 18.318 24.5534C18.8011 24.3467 19.1852 23.9607 19.3895 23.4766C19.5938 22.9925 19.6024 22.448 19.4135 21.9577L17.4592 13.8233L22.6574 11.668L22.6706 11.6683C23.1015 11.4903 23.4562 11.1669 23.6733 10.7544C23.8904 10.3419 23.956 9.86629 23.8587 9.4104ZM22.0353 10.1725L16.2041 12.5891C16.0256 12.6632 15.8794 12.7985 15.7917 12.9707C15.704 13.143 15.6807 13.3409 15.7259 13.5288L17.8539 22.4028C17.8647 22.4503 17.8803 22.4966 17.9006 22.5409C17.9331 22.6144 17.943 22.696 17.929 22.7751C17.9151 22.8543 17.8779 22.9276 17.8223 22.9856C17.7667 23.0437 17.6951 23.0839 17.6166 23.1012C17.538 23.1185 17.4562 23.112 17.3813 23.0827C17.2812 23.0435 17.2008 22.9662 17.1576 22.8678C17.1478 22.8456 17.1367 22.824 17.1245 22.8031L13.8916 16.9368C13.8229 16.8123 13.7227 16.708 13.6011 16.6343C13.4794 16.5607 13.3405 16.5203 13.1983 16.5172C13.0561 16.5141 12.9156 16.5484 12.7909 16.6167C12.6661 16.6849 12.5615 16.7848 12.4874 16.9062L9.00521 22.6211C8.99206 22.6414 8.98008 22.6625 8.96932 22.6843C8.92192 22.7807 8.83818 22.8545 8.73647 22.8893C8.6604 22.9153 8.57832 22.9182 8.50063 22.8975C8.42294 22.8768 8.35315 22.8335 8.3001 22.773C8.24705 22.7126 8.21314 22.6378 8.20266 22.5581C8.19219 22.4784 8.20562 22.3974 8.24125 22.3253C8.26343 22.2819 8.28109 22.2364 8.29395 22.1894L10.8034 13.4185C10.8567 13.2327 10.842 13.034 10.7619 12.8581C10.6818 12.6822 10.5416 12.5406 10.3665 12.4589L4.64605 9.79362C4.56401 9.75226 4.49842 9.68428 4.46003 9.6008C4.42163 9.51732 4.41269 9.42329 4.43467 9.33407C4.45665 9.24485 4.50825 9.16573 4.58104 9.10965C4.65382 9.05356 4.74348 9.02383 4.83535 9.02531L21.8797 9.39671C21.9718 9.39855 22.0606 9.43168 22.1314 9.49065C22.2022 9.54963 22.2508 9.63093 22.2693 9.72121C22.2877 9.81148 22.2749 9.90535 22.233 9.98739C22.191 10.0694 22.1224 10.1347 22.0384 10.1726L22.0353 10.1725Z" fill="white"/>
</svg>
