<svg width="24" height="24" viewBox="0 0 24 24" fill="none" xmlns="http://www.w3.org/2000/svg">
<path d="M15.75 3.80438L15.75 3C15.75 2.40326 15.5129 1.83097 15.091 1.40901C14.669 0.987053 14.0967 0.75 13.5 0.75L10.5 0.75C9.90326 0.75 9.33097 0.987053 8.90901 1.40901C8.48705 1.83097 8.25 2.40326 8.25 3L8.25 3.80438C7.00133 3.98638 5.85973 4.61133 5.0336 5.56518C4.20746 6.51902 3.75188 7.73813 3.75 9L3.75 20.25C3.75 20.6478 3.90804 21.0294 4.18934 21.3107C4.47064 21.592 4.85218 21.75 5.25 21.75L18.75 21.75C19.1478 21.75 19.5294 21.592 19.8107 21.3107C20.092 21.0294 20.25 20.6478 20.25 20.25L20.25 9C20.2481 7.73813 19.7925 6.51902 18.9664 5.56518C18.1403 4.61133 16.9987 3.98638 15.75 3.80438ZM9.75 3C9.75 2.80109 9.82902 2.61032 9.96967 2.46967C10.1103 2.32902 10.3011 2.25 10.5 2.25L13.5 2.25C13.6989 2.25 13.8897 2.32902 14.0303 2.46967C14.171 2.61032 14.25 2.80109 14.25 3L14.25 3.75L9.75 3.75L9.75 3ZM10.5 6.75L13.5 6.75C13.6989 6.75 13.8897 6.82902 14.0303 6.96967C14.171 7.11032 14.25 7.30109 14.25 7.5C14.25 7.69891 14.171 7.88968 14.0303 8.03033C13.8897 8.17098 13.6989 8.25 13.5 8.25L10.5 8.25C10.3011 8.25 10.1103 8.17098 9.96967 8.03033C9.82902 7.88968 9.75 7.69891 9.75 7.5C9.75 7.30109 9.82902 7.11032 9.96967 6.96967C10.1103 6.82902 10.3011 6.75 10.5 6.75ZM16.5 20.25L7.5 20.25L7.5 16.5L12.75 16.5L12.75 17.25C12.75 17.4489 12.829 17.6397 12.9697 17.7803C13.1103 17.921 13.3011 18 13.5 18C13.6989 18 13.8897 17.921 14.0303 17.7803C14.171 17.6397 14.25 17.4489 14.25 17.25L14.25 16.5L16.5 16.5L16.5 20.25ZM16.5 15L7.5 15L7.5 14.25C7.5 13.8522 7.65804 13.4706 7.93934 13.1893C8.22064 12.908 8.60218 12.75 9 12.75L15 12.75C15.3978 12.75 15.7794 12.908 16.0607 13.1893C16.342 13.4706 16.5 13.8522 16.5 14.25L16.5 15Z" fill="white"/>
</svg>
