<svg width="25" height="25" viewBox="0 0 25 25" fill="none" xmlns="http://www.w3.org/2000/svg">
<g clip-path="url(#clip0_34_657)">
<path d="M21.8246 13.6915C21.5835 13.4972 21.3054 13.3539 21.0072 13.2706C20.709 13.1872 20.3969 13.1653 20.09 13.2064C21.889 11.4677 22.8179 9.72029 22.8556 7.9882C22.9097 5.50723 20.9582 3.44579 18.5053 3.39234C17.8546 3.37407 17.2077 3.49847 16.6102 3.75679C16.0126 4.01511 15.4788 4.4011 15.0463 4.88766C14.6354 4.38272 14.1189 3.97385 13.5332 3.68974C12.9475 3.40563 12.3066 3.25318 11.6557 3.24309C9.20284 3.18964 7.16341 5.16412 7.10935 7.64509C7.08688 8.6761 7.36873 9.68466 7.98485 10.7587C7.45843 10.8799 6.97473 11.1416 6.58521 11.5158L4.41893 13.5879L1.72988 13.5293C1.33215 13.5206 0.947272 13.6703 0.659906 13.9454C0.37254 14.2205 0.20623 14.5985 0.197564 14.9963L0.11587 18.7454C0.107204 19.1431 0.25689 19.528 0.531999 19.8153C0.807109 20.1027 1.18511 20.269 1.58284 20.2777L11.3305 20.4901C11.3918 20.4915 11.4531 20.4852 11.5128 20.4716L17.5441 19.1026C17.5825 19.0944 17.6201 19.0826 17.6565 19.0676L21.3334 17.5967L21.3751 17.5788C21.729 17.4115 22.0346 17.1568 22.2629 16.8388C22.4912 16.5207 22.6348 16.1498 22.6801 15.7609C22.7255 15.3721 22.6711 14.978 22.522 14.616C22.373 14.254 22.1343 13.9358 21.8283 13.6916L21.8246 13.6915ZM20.7475 16.2139L17.1528 17.6528L11.2695 18.9884L5.36462 18.8597L5.4559 14.671L7.62315 12.5971C7.76495 12.4603 7.93253 12.353 8.11616 12.2815C8.29979 12.21 8.4958 12.1757 8.69279 12.1807L13.3848 12.2829C13.6831 12.2894 13.9666 12.4141 14.1729 12.6297C14.3793 12.8452 14.4915 13.1338 14.485 13.4321C14.4785 13.7304 14.3538 14.0139 14.1383 14.2203C13.9227 14.4266 13.6341 14.5389 13.3358 14.5324L10.7114 14.4752C10.5125 14.4708 10.3201 14.5457 10.1764 14.6832C10.0327 14.8208 9.94958 15.0098 9.94525 15.2087C9.94092 15.4075 10.0158 15.6 10.1533 15.7437C10.2909 15.8873 10.4799 15.9705 10.6787 15.9748L13.678 16.0402C13.7345 16.0413 13.7909 16.0362 13.8462 16.0251L20.1574 14.7176L20.1867 14.7107C20.3795 14.6617 20.5837 14.6857 20.7599 14.7781C20.9361 14.8706 21.0719 15.0249 21.1412 15.2115C21.2105 15.3981 21.2083 15.6036 21.1351 15.7887C21.0619 15.9737 20.9228 16.1252 20.7447 16.2139L20.7475 16.2139Z" fill="white"/>
</g>
<defs>
<clipPath id="clip0_34_657">
<rect width="24" height="24" fill="white" transform="translate(0.523438) rotate(1.24828)"/>
</clipPath>
</defs>
</svg>
