<svg width="27" height="27" viewBox="0 0 27 27" fill="none" xmlns="http://www.w3.org/2000/svg">
<path d="M22.5756 11.5111L14.6361 3.21791C14.3384 2.90709 13.9294 2.72722 13.4991 2.71784C13.0687 2.70847 12.6523 2.87035 12.3412 3.16791L4.04804 11.1074C3.8933 11.2544 3.76933 11.4308 3.68335 11.6262C3.59737 11.8215 3.55109 12.0321 3.5472 12.2455L3.33497 21.9851C3.33028 22.2004 3.41129 22.4087 3.56019 22.5642C3.70908 22.7197 3.91366 22.8098 4.12892 22.8144L10.622 22.9559C10.8373 22.9606 11.0456 22.8796 11.2011 22.7307C11.3566 22.5818 11.4466 22.3772 11.4513 22.162L11.5751 16.4805L14.8217 16.5513L14.6979 22.2327C14.6932 22.448 14.7742 22.6563 14.9231 22.8118C15.072 22.9673 15.2766 23.0573 15.4918 23.062L21.9849 23.2035C22.2001 23.2082 22.4085 23.1272 22.564 22.9783C22.7195 22.8294 22.8095 22.6248 22.8142 22.4096L23.0264 12.67C23.0318 12.4566 22.9948 12.2442 22.9174 12.0453C22.84 11.8463 22.7238 11.6648 22.5756 11.5111ZM21.2086 21.5626L16.3388 21.4565L16.4626 15.775C16.4673 15.5597 16.3863 15.3514 16.2374 15.1959C16.0885 15.0404 15.8839 14.9504 15.6687 14.9457L10.7989 14.8396C10.5836 14.8349 10.3753 14.9159 10.2198 15.0648C10.0642 15.2137 9.97423 15.4183 9.96954 15.6335L9.84574 21.315L4.97593 21.2089L5.17047 12.2809L13.4637 4.34138L21.4032 12.6346L21.2086 21.5626Z" fill="white"/>
</svg>
