<svg width="27" height="27" viewBox="0 0 27 27" fill="none" xmlns="http://www.w3.org/2000/svg">
<path d="M9.59073 14.4071C9.34994 14.4018 9.11611 14.3253 8.91882 14.1872C8.72152 14.049 8.56962 13.8555 8.48232 13.631C8.39502 13.4065 8.37625 13.1612 8.42837 12.9261C8.48049 12.6909 8.60117 12.4765 8.77514 12.31C8.94912 12.1434 9.16857 12.0322 9.40576 11.9904C9.64294 11.9486 9.88721 11.978 10.1077 12.075C10.3281 12.172 10.5149 12.3322 10.6443 12.5353C10.7737 12.7384 10.84 12.9754 10.8347 13.2161C10.8277 13.539 10.6927 13.8459 10.4594 14.0692C10.2261 14.2926 9.91361 14.4141 9.59073 14.4071ZM16.9485 12.1313C16.7077 12.1261 16.4708 12.1924 16.2676 12.3218C16.0645 12.4512 15.9043 12.6379 15.8073 12.8584C15.7103 13.0788 15.6809 13.3231 15.7227 13.5603C15.7646 13.7975 15.8758 14.0169 16.0423 14.1909C16.2089 14.3649 16.4233 14.4856 16.6584 14.5377C16.8936 14.5898 17.1389 14.571 17.3634 14.4837C17.5878 14.3964 17.7814 14.2445 17.9195 14.0472C18.0576 13.8499 18.1342 13.6161 18.1394 13.3753C18.1465 13.0524 18.0249 12.74 17.8016 12.5067C17.5783 12.2734 17.2714 12.1384 16.9485 12.1313ZM15.6037 16.693C14.871 17.1259 14.032 17.3454 13.1812 17.3269C12.3304 17.3084 11.5017 17.0525 10.7886 16.5881C10.609 16.4692 10.3895 16.4266 10.1784 16.4696C9.96728 16.5126 9.78192 16.6376 9.66305 16.8173C9.54419 16.997 9.50156 17.2165 9.54455 17.4276C9.58754 17.6387 9.71262 17.824 9.89228 17.9429C10.8612 18.5766 11.9884 18.9259 13.1458 18.9511C14.3033 18.9763 15.4446 18.6765 16.4402 18.0856C16.6248 17.9746 16.7579 17.7949 16.81 17.5859C16.8621 17.3769 16.8291 17.1557 16.7182 16.971C16.6073 16.7864 16.4275 16.6533 16.2185 16.6012C16.0095 16.549 15.7883 16.5821 15.6037 16.693ZM23.8209 13.4991C23.7754 15.586 23.1121 17.6125 21.9149 19.3223C20.7177 21.0322 19.0404 22.3487 17.095 23.1053C15.1496 23.8619 13.0235 24.0246 10.9857 23.5729C8.9478 23.1211 7.08964 22.0753 5.64617 20.5675C4.20271 19.0597 3.23876 17.1578 2.87624 15.1022C2.51372 13.0465 2.76889 10.9296 3.60951 9.019C4.45012 7.10841 5.8384 5.49 7.59881 4.36842C9.35922 3.24685 11.4127 2.67248 13.4995 2.71795C16.2969 2.78186 18.9547 3.9529 20.8897 5.97411C22.8247 7.99531 23.8789 10.7016 23.8209 13.4991ZM22.1976 13.4637C22.2449 11.1654 21.4051 8.93713 19.8526 7.24168C18.3001 5.54623 16.1543 4.51388 13.8606 4.35899C12.6488 5.98606 12.582 7.5579 12.5818 7.57008C12.5771 7.78533 12.6581 7.99364 12.807 8.14917C12.9559 8.3047 13.1605 8.39471 13.3757 8.3994C13.591 8.40409 13.7993 8.32307 13.9548 8.17418C14.1103 8.02528 14.2004 7.82071 14.205 7.60545C14.2097 7.39019 14.2997 7.18561 14.4553 7.03671C14.6108 6.88782 14.8191 6.80681 15.0344 6.8115C15.2496 6.81619 15.4542 6.9062 15.6031 7.06172C15.752 7.21725 15.833 7.42556 15.8283 7.64082C15.8142 8.28659 15.5442 8.90033 15.0776 9.34702C14.611 9.7937 13.9861 10.0367 13.3404 10.0227C12.6946 10.0086 12.0808 9.73857 11.6342 9.27198C11.1875 8.8054 10.9444 8.18048 10.9585 7.5347C10.9601 7.46064 11.0033 6.08419 11.8845 4.44586C10.2064 4.70934 8.6382 5.44599 7.364 6.56937C6.08979 7.69275 5.16243 9.15626 4.69073 10.7882C4.21903 12.42 4.22256 14.1526 4.70091 15.7826C5.17926 17.4125 6.11259 18.8723 7.39136 19.9904C8.67013 21.1086 10.2413 21.8389 11.9205 22.0955C13.5997 22.3521 15.3173 22.1245 16.8717 21.4393C18.426 20.7541 19.7528 19.6398 20.6961 18.2272C21.6395 16.8145 22.1603 15.162 22.1976 13.4637Z" fill="white"/>
</svg>
