<svg width="22" height="22" viewBox="0 0 22 22" fill="none" xmlns="http://www.w3.org/2000/svg">
<g clip-path="url(#clip0_34_870)">
<path d="M13.5843 3.39618C13.5843 2.85881 13.425 2.33351 13.1264 1.88671C12.8279 1.4399 12.4036 1.09166 11.9071 0.886018C11.4106 0.680376 10.8643 0.626571 10.3373 0.731406C9.81025 0.836242 9.32613 1.09501 8.94615 1.47499C8.56618 1.85496 8.30741 2.33908 8.20258 2.86612C8.09774 3.39317 8.15155 3.93946 8.35719 4.43593C8.56283 4.93239 8.91107 5.35672 9.35788 5.65527C9.80468 5.95381 10.33 6.11316 10.8674 6.11316C11.5879 6.11316 12.279 5.82691 12.7885 5.31738C13.2981 4.80784 13.5843 4.11677 13.5843 3.39618ZM10.8674 4.75467C10.5987 4.75467 10.336 4.675 10.1126 4.52572C9.88921 4.37645 9.71509 4.16428 9.61227 3.91605C9.50945 3.66782 9.48255 3.39467 9.53496 3.13115C9.58738 2.86763 9.71676 2.62557 9.90675 2.43558C10.0967 2.2456 10.3388 2.11621 10.6023 2.06379C10.8658 2.01138 11.139 2.03828 11.3872 2.1411C11.6355 2.24392 11.8476 2.41804 11.9969 2.64144C12.1462 2.86485 12.2258 3.1275 12.2258 3.39618C12.2258 3.75648 12.0827 4.10201 11.8279 4.35678C11.5732 4.61155 11.2276 4.75467 10.8674 4.75467ZM19.6551 7.44703C19.5778 7.06662 19.37 6.72516 19.0677 6.48162C18.7654 6.23808 18.3876 6.10776 17.9994 6.11316H3.73528C3.34818 6.11315 2.97269 6.2454 2.67103 6.48799C2.36938 6.73058 2.15966 7.06896 2.07663 7.44705C1.9936 7.82514 2.04225 8.22025 2.2145 8.56691C2.38675 8.91357 2.67228 9.19098 3.02377 9.35316H3.0348L7.34377 11.2508L5.56075 18.0195C5.37418 18.4304 5.35851 18.8987 5.51718 19.3212C5.67586 19.7437 5.99587 20.0859 6.40683 20.2725C6.81779 20.459 7.28603 20.4747 7.70855 20.316C8.13106 20.1573 8.47324 19.8373 8.6598 19.4264L10.8674 15.6167L13.0749 19.4264C13.2711 19.8198 13.6122 20.1218 14.0265 20.2689C14.4408 20.416 14.896 20.3966 15.2964 20.2149C15.6967 20.0333 16.011 19.7034 16.1731 19.2947C16.3352 18.886 16.3324 18.4304 16.1655 18.0237L14.3824 11.255L18.6914 9.35741H18.7024C19.0596 9.20065 19.3505 8.92367 19.5245 8.57463C19.6986 8.2256 19.7448 7.8266 19.6551 7.44703ZM18.1438 8.11778L13.3101 10.2455C13.1621 10.3107 13.0422 10.4266 12.9721 10.5723C12.9019 10.7179 12.8859 10.8839 12.9272 11.0402L14.869 18.4245C14.8789 18.464 14.8928 18.5024 14.9106 18.5391C14.9391 18.6 14.9488 18.6681 14.9386 18.7345C14.9284 18.801 14.8986 18.863 14.8532 18.9126C14.8077 18.9621 14.7485 18.9971 14.6832 19.013C14.6178 19.0289 14.5492 19.025 14.486 19.0018C14.4016 18.9709 14.3329 18.9077 14.295 18.8261C14.2864 18.8077 14.2768 18.7899 14.2661 18.7726L11.4549 13.9245C11.3952 13.8216 11.3095 13.7361 11.2064 13.6767C11.1033 13.6173 10.9863 13.5861 10.8674 13.5861C10.7484 13.5861 10.6314 13.6173 10.5283 13.6767C10.4252 13.7361 10.3395 13.8216 10.2798 13.9245L7.47112 18.7684C7.4605 18.7856 7.45086 18.8035 7.44226 18.8218C7.40436 18.9034 7.33566 18.9666 7.25122 18.9976C7.18806 19.0207 7.11945 19.0246 7.05409 19.0087C6.98873 18.9928 6.92956 18.9579 6.88408 18.9083C6.83861 18.8587 6.80888 18.7968 6.79866 18.7303C6.78844 18.6638 6.7982 18.5958 6.82669 18.5349C6.84445 18.4982 6.85839 18.4598 6.86829 18.4202L8.80754 11.0377C8.84876 10.8813 8.83284 10.7154 8.76265 10.5697C8.69245 10.424 8.57259 10.3082 8.42461 10.243L3.59094 8.11778C3.52155 8.08468 3.46545 8.02901 3.43181 7.95988C3.39817 7.89075 3.38898 7.81226 3.40574 7.73723C3.4225 7.6622 3.46422 7.59507 3.52408 7.54683C3.58394 7.49859 3.6584 7.47209 3.73528 7.47165H17.9994C18.0765 7.47151 18.1514 7.49761 18.2117 7.54565C18.272 7.59369 18.3141 7.66081 18.3312 7.73599C18.3483 7.81117 18.3393 7.88992 18.3057 7.95931C18.2721 8.02869 18.2159 8.08458 18.1463 8.11778H18.1438Z" fill="#5F921B"/>
</g>
<defs>
<clipPath id="clip0_34_870">
<rect width="21.7358" height="21.7358" fill="white"/>
</clipPath>
</defs>
</svg>
