<svg width="27" height="27" viewBox="0 0 27 27" fill="none" xmlns="http://www.w3.org/2000/svg">
<g clip-path="url(#clip0_375_7240)">
<path d="M5.69206 10.192C5.54457 10.038 5.42887 9.85643 5.35156 9.65768C5.27425 9.45893 5.23685 9.24691 5.2415 9.0337C5.24614 8.8205 5.29274 8.6103 5.37864 8.41511C5.46453 8.21992 5.58803 8.04356 5.74209 7.89611L12.3767 1.54451C12.6877 1.24669 13.1044 1.08465 13.535 1.09403C13.9655 1.10341 14.3747 1.28345 14.6726 1.59454C14.9704 1.90563 15.1324 2.32229 15.1231 2.75286C15.1137 3.18343 14.9336 3.59263 14.6225 3.89046L7.98797 10.242C7.83395 10.3895 7.65238 10.5052 7.45363 10.5826C7.25488 10.6599 7.04286 10.6973 6.82965 10.6926C6.61645 10.688 6.40625 10.6414 6.21106 10.5555C6.01587 10.4696 5.83951 10.3461 5.69206 10.192ZM24.9939 12.3757C24.8465 12.2217 24.6701 12.0981 24.4749 12.0123C24.2797 11.9264 24.0695 11.8798 23.8563 11.8751C23.6431 11.8705 23.4311 11.9079 23.2323 11.9852C23.0336 12.0625 22.852 12.1782 22.698 12.3257L16.0634 18.6773C15.9094 18.8247 15.7859 19.0011 15.7 19.1963C15.6141 19.3915 15.5675 19.6017 15.5628 19.8149C15.5582 20.0281 15.5956 20.2401 15.6729 20.4388C15.7502 20.6376 15.8659 20.8192 16.0134 20.9732C16.1609 21.1272 16.3372 21.2508 16.5324 21.3366C16.7276 21.4225 16.9378 21.4691 17.151 21.4738C17.3642 21.4784 17.5762 21.441 17.775 21.3637C17.9737 21.2864 18.1553 21.1707 18.3093 21.0232L24.9439 14.6716C25.0979 14.5242 25.2214 14.3478 25.3073 14.1526C25.3932 13.9574 25.4398 13.7472 25.4445 13.534C25.4491 13.3208 25.4117 13.1088 25.3344 12.9101C25.2571 12.7113 25.1414 12.5297 24.9939 12.3757ZM21.4668 10.6951L16.1979 5.19153C16.1611 5.15298 16.117 5.12207 16.0681 5.10058C16.0193 5.07908 15.9667 5.06742 15.9134 5.06626C15.8601 5.0651 15.807 5.07446 15.7573 5.09381C15.7076 5.11315 15.6622 5.14211 15.6237 5.17902L9.23171 11.2984C9.19316 11.3353 9.16225 11.3794 9.14075 11.4282C9.11925 11.477 9.10759 11.5296 9.10643 11.5829C9.10527 11.6362 9.11463 11.6893 9.13398 11.739C9.15333 11.7887 9.18229 11.8341 9.2192 11.8726L10.7276 13.4514L3.02419 20.8302C2.72593 21.1308 2.55688 21.5359 2.55307 21.9593C2.54927 22.3827 2.71102 22.7909 3.00383 23.0967C3.29664 23.4026 3.69735 23.582 4.12052 23.5966C4.54368 23.6113 4.95583 23.46 5.26908 23.1751L12.9765 15.8004L14.488 17.3792C14.5248 17.4178 14.5689 17.4487 14.6178 17.4702C14.6666 17.4917 14.7192 17.5034 14.7725 17.5045C14.8258 17.5057 14.8789 17.4963 14.9286 17.477C14.9783 17.4576 15.0237 17.4287 15.0622 17.3918L21.4542 11.2724C21.4932 11.2355 21.5245 11.1912 21.5463 11.1421C21.5681 11.093 21.5799 11.0401 21.581 10.9864C21.5822 10.9327 21.5727 10.8793 21.5531 10.8293C21.5335 10.7793 21.5041 10.7337 21.4668 10.6951Z" fill="white"/>
</g>
<defs>
<clipPath id="clip0_375_7240">
<rect width="25.9785" height="25.9785" fill="white" transform="translate(0.565939) rotate(1.24828)"/>
</clipPath>
</defs>
</svg>
