<svg width="63" height="47" viewBox="0 0 63 47" fill="none" xmlns="http://www.w3.org/2000/svg">
<path d="M50.9942 14.7083C49.9465 13.6735 48.5686 14.1415 48.5686 14.1415L49.9465 13.2666C50.355 13.7661 52.0419 15.7431 50.9942 14.7083Z" fill="white" stroke="white" stroke-width="0.284857"/>
<path d="M59.9426 33.6945C58.3659 32.5754 56.6717 30.7519 51.112 28.7705C51.0983 29.3802 60.4623 13.8364 44.4179 11.9436C40.2671 10.8246 35.8722 17.1859 35.5874 16.9897C34.2852 16.0925 32.5557 18.3529 34.2852 19.4109C32.6981 19.8382 33.2678 21.8093 32.9423 21.2015C31.4584 20.4527 30.2321 19.9147 29.7478 19.8382C27.2427 19.6698 13.4906 28.2415 12.9413 31.1511C11.3339 33.491 14.1049 36.3103 13.9789 36.2785C10.0317 35.2815 6.07965 34.6711 6.07965 34.6711C5.48529 32.4175 5.1687 30.0511 5.1687 27.6107C5.1687 12.3618 17.5304 0 32.7794 0C46.7516 0 58.2998 10.3783 60.1357 23.8466C60.3035 25.0773 60.6547 29.3606 59.9426 33.6945Z" fill="white" fill-opacity="0.27"/>
<path d="M50.5829 45.5356C50.5829 45.5356 49.4836 43.2974 48.4058 43.0329C47.328 42.7684 28.4246 46.5326 22.3205 45.5356C17.963 44.8239 16.4402 43.8061 8.79002 40.5913C3.547 38.388 0.549316 37.4579 0.549316 36.237C0.549316 35.24 1.27367 34.121 9.29848 35.179C11.1894 35.5953 12.1306 35.738 14.2434 36.4865M39.534 36.7254C35.5256 36.7254 31.633 36.1353 30.2761 36.1353M30.2761 36.1353C29.4761 36.1353 27.9362 36.237 27.1427 36.3998C26.3492 36.5626 24.7017 37.1323 24.7017 37.1323M30.2761 36.1353C28.1391 35.9522 27.4479 34.9145 27.1427 34.1617C26.8375 33.4088 27.1926 32.4282 27.6113 31.7811C28.5065 30.3975 34.8751 29.7871 34.8751 29.7871M14.2434 36.4865C16.3453 37.2311 19.9004 38.3328 20.7951 38.3531C21.6897 38.3735 24.7017 37.1323 24.7017 37.1323M14.2434 36.4865C14.2434 36.4865 15.4947 35.099 16.4402 34.5076C17.7659 33.6783 20.144 33.0426 20.144 33.0426M32.7178 21.4245C31.3545 20.1427 30.4738 20.0198 29.178 20.1427C26.8172 20.3665 24.0334 21.969 21.141 23.8661C16.9404 26.6212 12.7337 28.8866 12.4319 32.3304C12.1301 35.7743 14.2434 36.4865 14.2434 36.4865M14.2434 36.4865C14.2434 36.4865 12.1266 35.815 12.4283 32.3711C12.7301 28.9272 16.9404 26.6212 21.141 23.8661M32.7178 21.4245C32.2708 23.0474 32.3243 23.6341 32.4742 25.3108C32.5451 26.1043 32.8452 27.3724 33.6339 28.4645C34.163 29.197 34.4071 29.3598 34.8751 29.7871M32.7178 21.4245C32.9009 20.9904 33.5119 19.6421 33.9188 19.3491C33.9188 19.3491 32.8195 18.3725 33.6339 17.1923C34.4484 16.0122 35.75 16.9889 35.75 16.9889C36.7335 15.5171 39.3921 12.4352 42.1593 11.8818C45.148 11.2841 48.3494 12.1902 49.9522 13.2614M50.644 28.8918C49.5859 28.8918 48.8534 28.8918 47.5512 28.8918C43.1155 28.8918 36.0959 29.7057 36.0959 29.7057L34.8751 29.7871M50.644 28.8918C51.9394 27.5789 53.8384 24.5416 53.8384 21.4652C53.8384 16.7773 51.2476 14.0427 49.9522 13.2614M50.644 28.8918C51.5865 29.0953 53.671 29.5592 54.4686 29.7871C55.4656 30.0719 58.1107 31.2521 61.5493 36.7254M42.1593 26.9589C42.1661 27.3997 42.7087 28.3587 43.5225 28.668M37.8254 20.7734C37.6762 21.3363 37.7359 22.6046 39.1683 23.1743M49.9522 13.2614C48.9145 13.4119 47.1997 14.1555 46.4525 15.4674C45.6154 16.937 45.9446 18.8208 47.5512 19.3491C48.7834 19.7543 49.6063 18.6777 49.769 18.0876C49.9318 17.4975 49.5656 16.2157 48.4058 16.3174M19.594 28.4645C20.5091 28.3424 21.3146 28.3183 22.3205 28.7087C23.273 29.0783 23.4337 29.1482 24.2642 30.0719C24.8537 30.7277 25.6777 31.5335 25.9021 32.6967C26.1259 33.8565 25.8309 36.4609 24.7017 37.1323M24.7017 25.3108C24.3115 25.8398 23.5517 27.1623 23.6334 28.2204C23.7152 29.2784 24.088 29.8956 24.2642 30.0719" stroke="white" stroke-width="1.09873" stroke-linecap="round" stroke-linejoin="round"/>
<path d="M13.9996 35.2012C14.667 35.2663 15.1594 34.9434 15.3832 34.7942L14.5287 36.2795L13.2062 35.8929L12.9693 34.2948C12.9662 34.2779 12.9637 34.2612 12.9619 34.2449L12.9693 34.2948C13.0373 34.6629 13.4135 35.144 13.9996 35.2012Z" fill="white"/>
<path d="M22.647 27.6321C22.0448 28.039 21.3652 27.9984 20.9786 27.9984L23.4202 29.0971L23.6033 26.4316C23.488 26.6758 23.2493 27.2252 22.647 27.6321Z" fill="white"/>
<path d="M13.9996 35.2012C14.667 35.2663 15.1594 34.9434 15.3832 34.7942L14.5287 36.2795L13.2062 35.8929L12.9693 34.2948C12.9662 34.2779 12.9637 34.2612 12.9619 34.2449L12.9693 34.2948C13.0373 34.6629 13.4135 35.144 13.9996 35.2012Z" stroke="white" stroke-width="0.284857"/>
<path d="M22.647 27.6321C22.0448 28.039 21.3652 27.9984 20.9786 27.9984L23.4202 29.0971L23.6033 26.4316C23.488 26.6758 23.2493 27.2252 22.647 27.6321Z" stroke="white" stroke-width="0.284857"/>
<path d="M31.4765 28.75C30.7278 28.0338 31.8632 25.759 31.9446 25.0469L33.5926 28.75L33.4705 29.6453C32.9211 29.6114 32.2253 29.4662 31.4765 28.75Z" fill="white" stroke="white" stroke-width="0.284857"/>
<path d="M26.248 31.2321C25.9796 31.1576 25.4816 30.8591 25.3528 30.7031L26.1056 33.3279L25.5563 36.7258L28.5472 36.2375L26.7974 33.4703L27.5096 31.2321C27.123 31.4153 26.6143 31.3339 26.248 31.2321Z" fill="white" stroke="white" stroke-width="0.284857"/>
</svg>
