<svg width="51" height="41" viewBox="0 0 51 41" fill="none" xmlns="http://www.w3.org/2000/svg">
<rect width="51" height="41" fill="#E5E5E5"/>
<g id="Landing Page" clip-path="url(#clip0_231_705)">
<rect width="1440" height="8288" transform="translate(-80 -23.3467)" fill="#F0F0FE"/>
<g id="Group 3">
<g id="Frame 6">
<g id="Logo">
<g id="Group 1">
<path id="Vector 4" d="M38.6814 14.6853C37.9779 13.9905 37.0527 14.3048 37.0527 14.3048L37.9779 13.7173C38.2523 14.0527 39.3849 15.3802 38.6814 14.6853Z" fill="#0A4A6C" stroke="#0A4A6C" stroke-width="0.191273"/>
<path id="Ellipse 1" d="M44.6892 27.4339C43.6304 26.6825 42.4928 25.458 38.7597 24.1276C38.7505 24.537 45.0381 14.0998 34.2648 12.8289C31.4777 12.0774 28.5266 16.3489 28.3354 16.2171C27.461 15.6147 26.2997 17.1325 27.461 17.8429C26.3953 18.1299 26.7779 19.4534 26.5593 19.0452C25.5629 18.5425 24.7394 18.1812 24.4143 18.1299C22.7322 18.0168 13.4981 23.7724 13.1292 25.7261C12.0499 27.2973 13.9106 29.1904 13.826 29.169C11.1755 28.4996 8.52183 28.0897 8.52183 28.0897C8.12274 26.5765 7.91016 24.9875 7.91016 23.3489C7.91016 13.1096 16.2107 4.80908 26.4499 4.80908C35.8318 4.80908 43.5861 11.7778 44.8189 20.8213C44.9315 21.6478 45.1674 24.5238 44.6892 27.4339Z" fill="#F58700"/>
<path id="Vector 1" d="M38.4046 35.385C38.4046 35.385 37.6665 33.8821 36.9428 33.7045C36.2191 33.5269 23.526 36.0545 19.4273 35.385C16.5013 34.9071 15.4789 34.2237 10.342 32.0651C6.82145 30.5856 4.80859 29.9611 4.80859 29.1413C4.80859 28.4719 5.29498 27.7204 10.6834 28.4309C11.9531 28.7104 12.5851 28.8062 14.0037 29.3088M30.9856 29.4692C28.2941 29.4692 25.6803 29.073 24.7693 29.073M24.7693 29.073C24.2321 29.073 23.1981 29.1413 22.6653 29.2506C22.1324 29.3599 21.0262 29.7425 21.0262 29.7425M24.7693 29.073C23.3343 28.95 22.8702 28.2533 22.6653 27.7478C22.4603 27.2423 22.6987 26.5838 22.9799 26.1493C23.581 25.2202 27.8573 24.8104 27.8573 24.8104M14.0037 29.3088C15.4151 29.8088 17.8022 30.5485 18.403 30.5622C19.0037 30.5759 21.0262 29.7425 21.0262 29.7425M14.0037 29.3088C14.0037 29.3088 14.844 28.3772 15.4789 27.98C16.369 27.4232 17.9658 26.9963 17.9658 26.9963M26.4087 19.1951C25.4934 18.3344 24.902 18.2519 24.0319 18.3344C22.4467 18.4847 20.5775 19.5608 18.6353 20.8346C15.8147 22.6846 12.99 24.2057 12.7874 26.5182C12.5848 28.8306 14.0037 29.3088 14.0037 29.3088M14.0037 29.3088C14.0037 29.3088 12.5824 28.8579 12.785 26.5455C12.9876 24.233 15.8147 22.6846 18.6353 20.8346M26.4087 19.1951C26.1086 20.2849 26.1445 20.6788 26.2452 21.8046C26.2928 22.3375 26.4943 23.189 27.0239 23.9223C27.3791 24.4142 27.5431 24.5235 27.8573 24.8104M26.4087 19.1951C26.5317 18.9037 26.9419 17.9983 27.2152 17.8016C27.2152 17.8016 26.477 17.1458 27.0239 16.3534C27.5708 15.561 28.4448 16.2168 28.4448 16.2168C29.1051 15.2285 30.8904 13.1591 32.7484 12.7875C34.7553 12.3862 36.9049 12.9946 37.9811 13.7139M38.4456 24.2092C37.7352 24.2092 37.2433 24.2092 36.369 24.2092C33.3905 24.2092 28.6771 24.7557 28.6771 24.7557L27.8573 24.8104M38.4456 24.2092C39.3155 23.3276 40.5906 21.2882 40.5906 19.2225C40.5906 16.0747 38.8509 14.2385 37.9811 13.7139M38.4456 24.2092C39.0785 24.3458 40.4782 24.6573 41.0138 24.8104C41.6832 25.0016 43.4593 25.794 45.7682 29.4692M32.7484 22.9113C32.753 23.2073 33.1173 23.8513 33.6638 24.0589M29.8384 18.7579C29.7382 19.1359 29.7782 19.9876 30.7401 20.3701M37.9811 13.7139C37.2843 13.8149 36.1329 14.3142 35.6312 15.1951C35.0691 16.1819 35.2901 17.4468 36.369 17.8016C37.1963 18.0736 37.7489 17.3507 37.8581 16.9545C37.9674 16.5583 37.7215 15.6976 36.9428 15.7659M17.5965 23.9223C18.211 23.8403 18.7518 23.8241 19.4273 24.0863C20.0669 24.3344 20.1748 24.3814 20.7324 25.0016C21.1282 25.442 21.6815 25.9831 21.8322 26.7641C21.9825 27.5428 21.7844 29.2916 21.0262 29.7425M21.0262 21.8046C20.7642 22.1599 20.254 23.0479 20.3089 23.7584C20.3638 24.4688 20.6141 24.8832 20.7324 25.0016" stroke="#0A4A6C" stroke-width="0.737766" stroke-linecap="round" stroke-linejoin="round"/>
<g id="Vector 2">
<path d="M13.8394 28.4451C14.2875 28.4888 14.6181 28.272 14.7684 28.1719L14.1946 29.1692L13.3066 28.9096L13.1475 27.8365C13.1455 27.8252 13.1438 27.814 13.1426 27.803L13.1475 27.8365C13.1932 28.0837 13.4458 28.4067 13.8394 28.4451Z" fill="#0A4A6C"/>
<path d="M19.6458 23.3627C19.2414 23.636 18.7851 23.6086 18.5255 23.6086L20.165 24.3464L20.288 22.5566C20.2106 22.7206 20.0502 23.0895 19.6458 23.3627Z" fill="#0A4A6C"/>
<path d="M13.8394 28.4451C14.2875 28.4888 14.6181 28.272 14.7684 28.1719L14.1946 29.1692L13.3066 28.9096L13.1475 27.8365C13.1455 27.8252 13.1438 27.814 13.1426 27.803L13.1475 27.8365C13.1932 28.0837 13.4458 28.4067 13.8394 28.4451Z" stroke="#0A4A6C" stroke-width="0.191273"/>
<path d="M19.6458 23.3627C19.2414 23.636 18.7851 23.6086 18.5255 23.6086L20.165 24.3464L20.288 22.5566C20.2106 22.7206 20.0502 23.0895 19.6458 23.3627Z" stroke="#0A4A6C" stroke-width="0.191273"/>
</g>
<path id="Vector 3" d="M25.575 24.114C25.0722 23.6331 25.8346 22.1056 25.8893 21.6274L26.9959 24.114L26.9139 24.7151C26.545 24.6924 26.0778 24.5949 25.575 24.114Z" fill="#0A4A6C" stroke="#0A4A6C" stroke-width="0.191273"/>
<path id="Vector 5" d="M22.064 25.7805C21.8838 25.7304 21.5494 25.53 21.4629 25.4253L21.9684 27.1877L21.5995 29.4693L23.6079 29.1414L22.4329 27.2834L22.9111 25.7805C22.6515 25.9035 22.31 25.8488 22.064 25.7805Z" fill="#0A4A6C" stroke="#0A4A6C" stroke-width="0.191273"/>
</g>
</g>
</g>
</g>
</g>
<defs>
<clipPath id="clip0_231_705">
<rect width="1440" height="8288" fill="white" transform="translate(-80 -23.3467)"/>
</clipPath>
</defs>
</svg>
