<svg preserveAspectRatio="none" width="100%" height="100%" overflow="visible" style="display: block;" viewBox="0 0 41.6975 31.058" fill="none" xmlns="http://www.w3.org/2000/svg">
<g id="Group 1">
<path id="Vector 4" d="M34.241 9.87613C33.5375 9.18132 32.6123 9.49555 32.6123 9.49555L33.5375 8.90807C33.8118 9.24349 34.9445 10.5709 34.241 9.87613Z" fill="var(--fill-0, #161A3D)" stroke="var(--stroke-0, #161A3D)" stroke-width="0.191273"/>
<path id="Ellipse 1" d="M40.2495 22.6248C39.1908 21.8734 38.0532 20.6489 34.3201 19.3185C34.3109 19.7279 40.5985 9.29075 29.8252 8.01979C27.0381 7.26836 24.087 11.5398 23.8957 11.408C23.0214 10.8056 21.8601 12.3234 23.0214 13.0339C21.9557 13.3208 22.3382 14.6443 22.1196 14.2361C21.1233 13.7334 20.2998 13.3721 19.9747 13.3208C18.2926 13.2077 9.05846 18.9633 8.68957 20.917C7.61025 22.4882 9.47094 24.3813 9.38635 24.3599C6.73586 23.6905 4.08221 23.2806 4.08221 23.2806C3.68312 21.7674 3.47054 20.1784 3.47054 18.5398C3.47054 8.30054 11.7711 0 22.0103 0C31.3922 0 39.1465 6.9687 40.3792 16.0123C40.4919 16.8387 40.7277 19.7147 40.2495 22.6248Z" fill="var(--fill-0, #F58700)"/>
<path id="Vector 1" d="M33.9649 30.5759C33.9649 30.5759 33.2268 29.0731 32.5031 28.8955C31.7793 28.7179 19.0863 31.2454 14.9876 30.5759C12.0616 30.098 11.0392 29.4146 5.90226 27.256C2.38174 25.7766 0.368883 25.152 0.368883 24.3323C0.368883 23.6628 0.855264 22.9114 6.24368 23.6218C7.51335 23.9013 8.14536 23.9972 9.56401 24.4997M26.5459 24.6601C23.8544 24.6601 21.2406 24.2639 20.3295 24.2639M20.3295 24.2639C19.7924 24.2639 18.7584 24.3323 18.2255 24.4416C17.6927 24.5508 16.5864 24.9334 16.5864 24.9334M20.3295 24.2639C18.8946 24.141 18.4305 23.4442 18.2255 22.9387C18.0206 22.4332 18.259 21.7747 18.5402 21.3402C19.1413 20.4112 23.4176 20.0013 23.4176 20.0013M9.56401 24.4997C10.9754 24.9997 13.3625 25.7395 13.9633 25.7531C14.564 25.7668 16.5864 24.9334 16.5864 24.9334M9.56401 24.4997C9.56401 24.4997 10.4043 23.5681 11.0392 23.171C11.9293 22.6141 13.5261 22.1873 13.5261 22.1873M21.969 14.3861C21.0536 13.5254 20.4623 13.4429 19.5922 13.5254C18.0069 13.6756 16.1378 14.7517 14.1955 16.0256C11.375 17.8755 8.55032 19.3966 8.34768 21.7091C8.14504 24.0216 9.56401 24.4997 9.56401 24.4997M9.56401 24.4997C9.56401 24.4997 8.14265 24.0489 8.34529 21.7364C8.54792 19.4239 11.375 17.8755 14.1955 16.0256M21.969 14.3861C21.6689 15.4758 21.7048 15.8697 21.8055 16.9956C21.8531 17.5284 22.0546 18.3799 22.5842 19.1132C22.9394 19.6051 23.1034 19.7144 23.4176 20.0013M21.969 14.3861C22.092 14.0946 22.5022 13.1893 22.7755 12.9925C22.7755 12.9925 22.0373 12.3367 22.5842 11.5443C23.1311 10.7519 24.0051 11.4077 24.0051 11.4077C24.6654 10.4195 26.4507 8.35007 28.3087 7.97845C30.3156 7.57708 32.4652 8.18552 33.5414 8.9048M34.0059 19.4002C33.2955 19.4002 32.8036 19.4002 31.9292 19.4002C28.9508 19.4002 24.2373 19.9466 24.2373 19.9466L23.4176 20.0013M34.0059 19.4002C34.8758 18.5185 36.1509 16.4791 36.1509 14.4134C36.1509 11.2656 34.4112 9.42942 33.5414 8.9048M34.0059 19.4002C34.6388 19.5368 36.0385 19.8483 36.574 20.0013C37.2435 20.1926 39.0196 20.985 41.3285 24.6601M28.3087 18.1022C28.3133 18.3982 28.6776 19.0422 29.2241 19.2499M25.3986 13.9489C25.2985 14.3269 25.3385 15.1785 26.3004 15.561M33.5414 8.9048C32.8446 9.00588 31.6932 9.50518 31.1915 10.386C30.6294 11.3728 30.8504 12.6378 31.9292 12.9925C32.7566 13.2646 33.3091 12.5417 33.4184 12.1455C33.5277 11.7492 33.2818 10.8885 32.5031 10.9568M13.1568 19.1132C13.7712 19.0313 14.3121 19.0151 14.9876 19.2772C15.6271 19.5254 15.7351 19.5723 16.2927 20.1926C16.6885 20.6329 17.2418 21.174 17.3925 21.955C17.5428 22.7338 17.3447 24.4825 16.5864 24.9334M16.5864 16.9956C16.3245 17.3508 15.8143 18.2388 15.8692 18.9493C15.9241 19.6597 16.1744 20.0742 16.2927 20.1926" stroke="var(--stroke-0, #161A3D)" stroke-width="0.737766" stroke-linecap="round" stroke-linejoin="round"/>
<g id="Vector 2">
<path d="M9.39985 23.6361C9.84797 23.6798 10.1786 23.463 10.3289 23.3628L9.75513 24.3601L8.86708 24.1006L8.70804 23.0275C8.70595 23.0161 8.70429 23.0049 8.70307 22.9939L8.70804 23.0275C8.75367 23.2746 9.00629 23.5977 9.39985 23.6361Z" fill="var(--fill-0, #161A3D)"/>
<path d="M15.2063 18.5537C14.8019 18.8269 14.3456 18.7996 14.086 18.7996L15.7255 19.5374L15.8485 17.7476C15.771 17.9115 15.6107 18.2804 15.2063 18.5537Z" fill="var(--fill-0, #161A3D)"/>
<path d="M9.39985 23.6361C9.84797 23.6798 10.1786 23.463 10.3289 23.3628L9.75513 24.3601L8.86708 24.1006L8.70307 22.9939C8.73076 23.2443 8.98821 23.5959 9.39985 23.6361ZM14.086 18.7996C14.3456 18.7996 14.8019 18.8269 15.2063 18.5537C15.6107 18.2804 15.771 17.9115 15.8485 17.7476L15.7255 19.5374L14.086 18.7996Z" stroke="var(--stroke-0, #161A3D)" stroke-width="0.191273"/>
</g>
<path id="Vector 3" d="M21.1356 19.3048C20.6329 18.8239 21.3952 17.2965 21.4499 16.8183L22.5565 19.3048L22.4745 19.906C22.1056 19.8832 21.6384 19.7857 21.1356 19.3048Z" fill="var(--fill-0, #161A3D)" stroke="var(--stroke-0, #161A3D)" stroke-width="0.191273"/>
<path id="Vector 5" d="M17.6246 20.9716C17.4443 20.9215 17.11 20.7211 17.0235 20.6164L17.529 22.3788L17.1601 24.6604L19.1684 24.3325L17.9935 22.4745L18.4717 20.9716C18.2121 21.0946 17.8705 21.0399 17.6246 20.9716Z" fill="var(--fill-0, #161A3D)" stroke="var(--stroke-0, #161A3D)" stroke-width="0.191273"/>
</g>
</svg>
