<svg width="59" height="59" viewBox="0 0 59 59" fill="none" xmlns="http://www.w3.org/2000/svg">
<rect x="1.25015" width="57.3692" height="57.3692" rx="28.6846" transform="rotate(1.24828 1.25015 0)" fill="#0A4A6C"/>
<path d="M32.2029 20.4339C32.2168 19.7918 32.0401 19.16 31.695 18.6183C31.3499 18.0766 30.8519 17.6495 30.2641 17.3908C29.6762 17.1322 29.0248 17.0537 28.3923 17.1652C27.7598 17.2768 27.1746 17.5734 26.7107 18.0175C26.2468 18.4616 25.9249 19.0334 25.786 19.6604C25.647 20.2875 25.697 20.9416 25.9298 21.5402C26.1626 22.1388 26.5677 22.6549 27.0938 23.0233C27.6199 23.3916 28.2435 23.5957 28.8856 23.6097C29.7466 23.6285 30.5798 23.3044 31.2019 22.7088C31.8241 22.1133 32.1841 21.295 32.2029 20.4339ZM28.9209 21.9864C28.5999 21.9794 28.2881 21.8774 28.0251 21.6932C27.762 21.509 27.5595 21.251 27.4431 20.9517C27.3267 20.6524 27.3016 20.3253 27.3711 20.0118C27.4406 19.6983 27.6015 19.4124 27.8335 19.1903C28.0655 18.9683 28.3581 18.82 28.6743 18.7642C28.9906 18.7084 29.3163 18.7477 29.6102 18.877C29.9041 19.0063 30.1531 19.2199 30.3257 19.4907C30.4982 19.7616 30.5866 20.0775 30.5796 20.3985C30.5702 20.8291 30.3902 21.2382 30.0791 21.536C29.7681 21.8338 29.3515 21.9958 28.9209 21.9864ZM39.3514 25.4324C39.2689 24.9758 39.0295 24.5624 38.6747 24.2635C38.3198 23.9646 37.8717 23.7991 37.4077 23.7954L20.3634 23.424C19.9009 23.4139 19.4487 23.5622 19.082 23.8442C18.7152 24.1262 18.4558 24.5251 18.3467 24.9747C18.2377 25.4243 18.2855 25.8977 18.4823 26.3164C18.6791 26.7351 19.0131 27.074 19.4289 27.277L19.442 27.2773L24.5414 29.657L22.2347 37.6985C22.001 38.1847 21.9701 38.7438 22.1487 39.2528C22.3273 39.7618 22.7008 40.179 23.187 40.4126C23.6732 40.6462 24.2323 40.6772 24.7413 40.4986C25.2503 40.32 25.6675 39.9465 25.9011 39.4603L28.6381 34.9655L31.1767 39.5752C31.4009 40.0505 31.8007 40.4203 32.2919 40.6068C32.7831 40.7933 33.3276 40.782 33.8107 40.5754C34.2938 40.3687 34.6779 39.9827 34.8822 39.4986C35.0865 39.0145 35.0951 38.47 34.9062 37.9797L32.9519 29.8453L38.1501 27.69L38.1633 27.6903C38.5941 27.5123 38.9489 27.1889 39.166 26.7764C39.3831 26.3638 39.4487 25.8883 39.3514 25.4324ZM37.528 26.1945L31.6968 28.6111C31.5183 28.6852 31.3721 28.8205 31.2844 28.9927C31.1967 29.165 31.1734 29.3628 31.2186 29.5507L33.3466 38.4248C33.3574 38.4723 33.373 38.5185 33.3933 38.5628C33.4258 38.6364 33.4356 38.7179 33.4217 38.7971C33.4078 38.8763 33.3706 38.9495 33.315 39.0076C33.2594 39.0656 33.1878 39.1058 33.1092 39.1231C33.0307 39.1404 32.9488 39.134 32.874 39.1047C32.7739 39.0655 32.6934 38.9882 32.6503 38.8897C32.6405 38.8676 32.6294 38.846 32.6172 38.8251L29.3842 32.9588C29.3156 32.8343 29.2154 32.7299 29.0937 32.6563C28.9721 32.5826 28.8332 32.5422 28.691 32.5391C28.5488 32.536 28.4083 32.5704 28.2835 32.6386C28.1588 32.7069 28.0541 32.8068 27.9801 32.9282L24.4979 38.6431C24.4847 38.6634 24.4728 38.6845 24.462 38.7062C24.4146 38.8027 24.3309 38.8764 24.2292 38.9113C24.1531 38.9373 24.071 38.9401 23.9933 38.9194C23.9156 38.8987 23.8458 38.8554 23.7928 38.795C23.7397 38.7346 23.7058 38.6598 23.6953 38.5801C23.6849 38.5004 23.6983 38.4194 23.7339 38.3473C23.7561 38.3039 23.7738 38.2584 23.7866 38.2114L26.2961 29.4404C26.3494 29.2547 26.3347 29.056 26.2546 28.8801C26.1745 28.7042 26.0343 28.5626 25.8592 28.4809L20.1387 25.8156C20.0567 25.7742 19.9911 25.7062 19.9527 25.6228C19.9143 25.5393 19.9054 25.4453 19.9274 25.356C19.9493 25.2668 20.0009 25.1877 20.0737 25.1316C20.1465 25.0755 20.2362 25.0458 20.328 25.0473L37.3724 25.4187C37.4645 25.4205 37.5532 25.4537 37.624 25.5126C37.6948 25.5716 37.7435 25.6529 37.7619 25.7432C37.7804 25.8335 37.7676 25.9273 37.7256 26.0094C37.6837 26.0914 37.6151 26.1567 37.5311 26.1946L37.528 26.1945Z" fill="white"/>
</svg>
