<svg width="24" height="24" viewBox="0 0 24 24" fill="none" xmlns="http://www.w3.org/2000/svg">
<g clip-path="url(#clip0_34_888)">
<path d="M6.01175 13.8564C6.01429 13.9072 6.00647 13.958 5.98877 14.0057C5.97107 14.0533 5.94385 14.0969 5.90877 14.1338C5.87369 14.1706 5.83149 14.1999 5.78472 14.2199C5.73796 14.2399 5.68761 14.2502 5.63675 14.2501L1.5005 14.2501C1.33122 14.2504 1.16683 14.1934 1.03407 14.0884C0.901303 13.9833 0.807971 13.8365 0.769249 13.6717C0.745137 13.5589 0.746249 13.4422 0.772504 13.3299C0.798759 13.2176 0.849509 13.1124 0.921124 13.022C1.58282 12.1445 2.46077 11.4536 3.46925 11.0167C3.02649 10.613 2.68691 10.1091 2.47894 9.54721C2.27098 8.9853 2.20068 8.38173 2.27395 7.78707C2.34721 7.1924 2.5619 6.62395 2.90003 6.12931C3.23817 5.63468 3.6899 5.22827 4.2174 4.94413C4.7449 4.65998 5.33281 4.50636 5.93188 4.49615C6.53096 4.48594 7.12376 4.61942 7.66063 4.88542C8.19751 5.15142 8.66284 5.54219 9.01764 6.02501C9.37244 6.50783 9.60638 7.06863 9.69987 7.66046C9.71195 7.74004 9.69769 7.82139 9.65927 7.89213C9.62086 7.96287 9.56039 8.01912 9.48706 8.05233C8.4468 8.53325 7.56581 9.30168 6.94803 10.267C6.33026 11.2322 6.00148 12.3541 6.0005 13.5001C6.0005 13.6201 6.0005 13.7383 6.01175 13.8564ZM23.0742 13.0211C22.4141 12.1446 21.5381 11.454 20.5317 11.0167C20.9745 10.613 21.3141 10.1091 21.5221 9.54721C21.73 8.9853 21.8003 8.38173 21.727 7.78707C21.6538 7.1924 21.4391 6.62395 21.101 6.12931C20.7628 5.63468 20.3111 5.22827 19.7836 4.94413C19.2561 4.65998 18.6682 4.50636 18.0691 4.49615C17.47 4.48594 16.8772 4.61942 16.3404 4.88542C15.8035 5.15142 15.3382 5.54219 14.9834 6.02501C14.6286 6.50783 14.3946 7.06863 14.3011 7.66046C14.289 7.74004 14.3033 7.82139 14.3417 7.89213C14.3801 7.96287 14.4406 8.01912 14.5139 8.05233C15.5542 8.53325 16.4352 9.30168 17.053 10.267C17.6707 11.2322 17.9995 12.3541 18.0005 13.5001C18.0005 13.6201 18.0005 13.7383 17.9892 13.8564C17.9867 13.9072 17.9945 13.958 18.0122 14.0057C18.0299 14.0533 18.0571 14.0969 18.0922 14.1338C18.1273 14.1706 18.1695 14.1999 18.2163 14.2199C18.263 14.2399 18.3134 14.2502 18.3642 14.2501L22.5005 14.2501C22.6698 14.2504 22.8342 14.1934 22.9669 14.0884C23.0997 13.9833 23.193 13.8365 23.2317 13.6717C23.256 13.5587 23.2549 13.4417 23.2285 13.3292C23.202 13.2167 23.151 13.1115 23.0789 13.0211L23.0742 13.0211ZM14.7305 17.0692C15.4773 16.4973 16.026 15.7058 16.2997 14.8059C16.5734 13.9059 16.5582 12.9429 16.2563 12.0521C15.9543 11.1612 15.3808 10.3874 14.6164 9.83936C13.852 9.2913 12.935 8.99656 11.9944 8.99656C11.0538 8.99656 10.1368 9.2913 9.3724 9.83936C8.60796 10.3874 8.03448 11.1612 7.73254 12.0521C7.43061 12.9429 7.41541 13.9059 7.68909 14.8059C7.96276 15.7058 8.51154 16.4973 9.25831 17.0692C7.93319 17.6434 6.82668 18.6267 6.10081 19.8751C6.03498 19.9892 6.00032 20.1185 6.00033 20.2502C6.00034 20.3819 6.03501 20.5112 6.10085 20.6252C6.1667 20.7392 6.2614 20.8339 6.37544 20.8997C6.48948 20.9655 6.61883 21.0002 6.7505 21.0001L17.2505 21.0001C17.3822 21.0002 17.5115 20.9655 17.6256 20.8997C17.7396 20.8339 17.8343 20.7392 17.9001 20.6252C17.966 20.5112 18.0007 20.3819 18.0007 20.2502C18.0007 20.1185 17.966 19.9892 17.9002 19.8751C17.1728 18.6258 16.0642 17.6425 14.7371 17.0692L14.7305 17.0692Z" fill="white"/>
</g>
<defs>
<clipPath id="clip0_34_888">
<rect width="24" height="24" fill="white"/>
</clipPath>
</defs>
</svg>
